<svg xmlns="http://www.w3.org/2000/svg" width="18.515" height="28.426" viewBox="0 0 18.515 28.426">
  <g id="Location" transform="translate(1 1)">
    <path id="Path_81" data-name="Path 81" d="M8.258,0a8.262,8.262,0,0,1,8.258,8.258c0,3.394-5.7,12.047-7.769,15.637a.565.565,0,0,1-.976,0C5.7,20.306,0,11.652,0,8.258A8.262,8.262,0,0,1,8.258,0Zm0,1.131A7.122,7.122,0,0,0,1.131,8.258c0,2.862,5.3,11.2,7.127,14.242,1.827-3.043,7.127-11.38,7.127-14.242A7.122,7.122,0,0,0,8.258,1.131Z" fill="#fff" stroke="#fff" stroke-width="2"/>
    <path id="Path_82" data-name="Path 82" d="M30.132,26.34a3.792,3.792,0,1,1-3.792,3.792A3.8,3.8,0,0,1,30.132,26.34Zm0,1.131a2.662,2.662,0,1,0,2.662,2.662A2.659,2.659,0,0,0,30.132,27.471Z" transform="translate(-21.875 -21.875)" fill="#fff" stroke="#fff" stroke-width="2"/>
    <path id="Path_83" data-name="Path 83" d="M37.646,150.341a.565.565,0,0,1,0-1.131h2.826a.565.565,0,0,1,0,1.131Z" transform="translate(-30.8 -123.915)" fill="#fff" stroke="#fff" stroke-width="2"/>
  </g>
</svg>
