<svg xmlns="http://www.w3.org/2000/svg" width="183" height="183" viewBox="0 0 183 183">
  <g id="Group_59" data-name="Group 59" transform="translate(-686 -2288)">
    <g id="briefing" transform="translate(684.203 2327.081)">
      <g id="Group_21" data-name="Group 21" transform="translate(51.091 24.198)">
        <g id="Group_20" data-name="Group 20">
          <path id="Path_47" data-name="Path 47" d="M112.152,195.819h-58V120.262a1.532,1.532,0,1,0-3.063,0V196.33a2.556,2.556,0,0,0,2.553,2.553h58.508a1.532,1.532,0,1,0,0-3.063Z" transform="translate(-51.091 -118.73)" fill="#212934"/>
        </g>
      </g>
      <g id="Group_23" data-name="Group 23" transform="translate(51.091)">
        <g id="Group_22" data-name="Group 22">
          <path id="Path_48" data-name="Path 48" d="M134.183,13.849,121.164.464a1.532,1.532,0,0,0-1.1-.464H53.644a2.556,2.556,0,0,0-2.553,2.553V14.5a1.532,1.532,0,1,0,3.063,0V3.063h65.265l12.134,12.476v85.748h-8.68a1.532,1.532,0,0,0,0,3.063h9.191a2.555,2.555,0,0,0,2.553-2.553V14.917A1.531,1.531,0,0,0,134.183,13.849Z" transform="translate(-51.091 0)" fill="#212934"/>
        </g>
      </g>
      <g id="Group_25" data-name="Group 25" transform="translate(118.534 0)">
        <g id="Group_24" data-name="Group 24">
          <path id="Path_49" data-name="Path 49" d="M397.652,13.849,384.633.464A1.531,1.531,0,0,0,382,1.532V14.917a1.532,1.532,0,0,0,1.532,1.532h13.019a1.532,1.532,0,0,0,1.1-2.6Zm-12.585-.464V5.3l7.861,8.082h-7.861Z" transform="translate(-382.004 -0.001)" fill="#212934"/>
        </g>
      </g>
      <g id="Group_27" data-name="Group 27" transform="translate(60.486 8.132)">
        <g id="Group_26" data-name="Group 26">
          <path id="Path_50" data-name="Path 50" d="M136.645,39.9h-36.9a2.556,2.556,0,0,0-2.553,2.553v8.465a2.556,2.556,0,0,0,2.553,2.553h36.9a2.556,2.556,0,0,0,2.553-2.553V42.452A2.555,2.555,0,0,0,136.645,39.9Zm-.511,10.507H100.252V42.962h35.882Z" transform="translate(-97.189 -39.899)" fill="#212934"/>
        </g>
      </g>
      <g id="Group_29" data-name="Group 29" transform="translate(62.298 29.406)">
        <g id="Group_28" data-name="Group 28">
          <path id="Path_51" data-name="Path 51" d="M119.564,144.592a1.532,1.532,0,0,0-2.146.293l-6.767,8.9-2.032-1.778a1.532,1.532,0,0,0-2.017,2.305l3.267,2.859a1.533,1.533,0,0,0,1.008.379c.051,0,.1,0,.155-.008a1.532,1.532,0,0,0,1.065-.6l7.76-10.21A1.532,1.532,0,0,0,119.564,144.592Z" transform="translate(-106.079 -144.28)" fill="#212934"/>
        </g>
      </g>
      <g id="Group_31" data-name="Group 31" transform="translate(81.771 29.405)">
        <g id="Group_30" data-name="Group 30">
          <path id="Path_52" data-name="Path 52" d="M241.728,144.277H203.153a1.532,1.532,0,1,0,0,3.063h38.576a1.532,1.532,0,0,0,0-3.063Z" transform="translate(-201.621 -144.277)" fill="#212934"/>
        </g>
      </g>
      <g id="Group_33" data-name="Group 33" transform="translate(81.771 34.51)">
        <g id="Group_32" data-name="Group 32">
          <path id="Path_53" data-name="Path 53" d="M228.2,169.326H203.153a1.532,1.532,0,1,0,0,3.063H228.2a1.532,1.532,0,0,0,0-3.063Z" transform="translate(-201.621 -169.326)" fill="#212934"/>
        </g>
      </g>
      <g id="Group_35" data-name="Group 35" transform="translate(81.771 39.616)">
        <g id="Group_34" data-name="Group 34">
          <path id="Path_54" data-name="Path 54" d="M233.916,194.376H203.153a1.532,1.532,0,1,0,0,3.063h30.763a1.532,1.532,0,1,0,0-3.063Z" transform="translate(-201.621 -194.376)" fill="#212934"/>
        </g>
      </g>
      <g id="Group_37" data-name="Group 37" transform="translate(62.298 50.236)">
        <g id="Group_36" data-name="Group 36">
          <path id="Path_55" data-name="Path 55" d="M119.564,246.794a1.532,1.532,0,0,0-2.146.293l-6.767,8.9-2.032-1.778a1.532,1.532,0,1,0-2.017,2.305l3.267,2.859a1.533,1.533,0,0,0,1.008.379c.051,0,.1,0,.155-.008a1.532,1.532,0,0,0,1.065-.6l7.76-10.21A1.532,1.532,0,0,0,119.564,246.794Z" transform="translate(-106.079 -246.482)" fill="#212934"/>
        </g>
      </g>
      <g id="Group_39" data-name="Group 39" transform="translate(81.771 50.235)">
        <g id="Group_38" data-name="Group 38">
          <path id="Path_56" data-name="Path 56" d="M241.728,246.481H203.153a1.532,1.532,0,1,0,0,3.063h38.576a1.532,1.532,0,0,0,0-3.063Z" transform="translate(-201.621 -246.481)" fill="#212934"/>
        </g>
      </g>
      <g id="Group_41" data-name="Group 41" transform="translate(81.771 55.341)">
        <g id="Group_40" data-name="Group 40">
          <path id="Path_57" data-name="Path 57" d="M228.2,271.53H203.153a1.532,1.532,0,1,0,0,3.063H228.2a1.532,1.532,0,0,0,0-3.063Z" transform="translate(-201.621 -271.53)" fill="#212934"/>
        </g>
      </g>
      <g id="Group_43" data-name="Group 43" transform="translate(81.771 60.446)">
        <g id="Group_42" data-name="Group 42">
          <path id="Path_58" data-name="Path 58" d="M233.916,296.579H203.153a1.532,1.532,0,1,0,0,3.063h30.763a1.532,1.532,0,1,0,0-3.063Z" transform="translate(-201.621 -296.579)" fill="#212934"/>
        </g>
      </g>
      <g id="Group_45" data-name="Group 45" transform="translate(81.771 71.065)">
        <g id="Group_44" data-name="Group 44">
          <path id="Path_59" data-name="Path 59" d="M241.728,348.685H203.153a1.532,1.532,0,1,0,0,3.063h38.576a1.532,1.532,0,0,0,0-3.063Z" transform="translate(-201.621 -348.685)" fill="#212934"/>
        </g>
      </g>
      <g id="Group_47" data-name="Group 47" transform="translate(81.771 76.171)">
        <g id="Group_46" data-name="Group 46">
          <path id="Path_60" data-name="Path 60" d="M228.2,373.734H203.153a1.532,1.532,0,1,0,0,3.063H228.2a1.532,1.532,0,0,0,0-3.063Z" transform="translate(-201.621 -373.734)" fill="#212934"/>
        </g>
      </g>
      <g id="Group_49" data-name="Group 49" transform="translate(81.771 81.276)">
        <g id="Group_48" data-name="Group 48">
          <path id="Path_61" data-name="Path 61" d="M233.916,398.783H203.153a1.532,1.532,0,1,0,0,3.063h30.763a1.532,1.532,0,1,0,0-3.063Z" transform="translate(-201.621 -398.783)" fill="#212934"/>
        </g>
      </g>
      <g id="Group_51" data-name="Group 51" transform="translate(62.298 71.065)">
        <g id="Group_50" data-name="Group 50">
          <path id="Path_62" data-name="Path 62" d="M116.8,348.685H108.63a2.556,2.556,0,0,0-2.553,2.553v8.168a2.556,2.556,0,0,0,2.553,2.553H116.8a2.555,2.555,0,0,0,2.553-2.552v-8.169A2.556,2.556,0,0,0,116.8,348.685Zm-.51,10.211H109.14v-7.147h7.147Z" transform="translate(-106.077 -348.685)" fill="#212934"/>
        </g>
      </g>
    </g>
    <g id="Group_58" data-name="Group 58" transform="translate(386 210)">
      <g id="Ellipse_1" data-name="Ellipse 1" transform="translate(300 2078)" fill="none" stroke="#212934" stroke-width="6">
        <circle cx="91.5" cy="91.5" r="91.5" stroke="none"/>
        <circle cx="91.5" cy="91.5" r="88.5" fill="none"/>
      </g>
    </g>
  </g>
</svg>
