<svg xmlns="http://www.w3.org/2000/svg" width="183" height="183" viewBox="0 0 183 183">
  <g id="Group_57" data-name="Group 57" transform="translate(-300 -2078)">
    <g id="team2" transform="translate(299.036 2077.081)">
      <g id="Group_56" data-name="Group 56" transform="translate(2 2)">
        <path id="Path_63" data-name="Path 63" d="M92.459,182.919a90.459,90.459,0,1,1,90.459-90.459A90.562,90.562,0,0,1,92.459,182.919Zm0-177.9A87.444,87.444,0,1,0,179.9,92.459,87.542,87.542,0,0,0,92.459,5.015Z" transform="translate(-2 -2)" fill="#212934"/>
        <g id="Group_55" data-name="Group 55" transform="translate(14.051 49.994)">
          <g id="Group_52" data-name="Group 52" transform="translate(50.509)">
            <path id="Path_64" data-name="Path 64" d="M73.7,71.011H24.919A1.508,1.508,0,0,1,23.411,69.5V39.887a4.736,4.736,0,0,1,2.768-4.194l8.747-4.312a1.509,1.509,0,0,1,1.891.473,15.446,15.446,0,0,0,12.489,5.94A15.446,15.446,0,0,0,61.8,31.854a1.52,1.52,0,0,1,1.954-.44l8.922,4.945a4.675,4.675,0,0,1,2.533,4.071V69.5A1.5,1.5,0,0,1,73.7,71.011ZM26.426,68H72.193V40.429a1.708,1.708,0,0,0-.98-1.435l-7.8-4.321A18.5,18.5,0,0,1,49.31,40.809a18.485,18.485,0,0,1-14.145-6.181L27.515,38.4a1.753,1.753,0,0,0-1.089,1.49Z" transform="translate(-23.411 6.905)" fill="#212934"/>
            <path id="Path_65" data-name="Path 65" d="M42.191,53.359A15.2,15.2,0,0,1,26.943,38.24V33.7a15.249,15.249,0,0,1,30.5,0V38.24A15.2,15.2,0,0,1,42.191,53.359Zm0-31.763A12.184,12.184,0,0,0,29.958,33.7V38.24a12.234,12.234,0,0,0,24.466,0V33.7A12.184,12.184,0,0,0,42.191,21.6Z" transform="translate(-16.293 -18.58)" fill="#212934"/>
          </g>
          <g id="Group_53" data-name="Group 53" transform="translate(0 13.4)">
            <path id="Path_66" data-name="Path 66" d="M47.276,66.766H8.168A1.508,1.508,0,0,1,6.66,65.258V40.572a4.1,4.1,0,0,1,2.388-3.63l7.011-3.456a1.511,1.511,0,0,1,1.891.473,12.08,12.08,0,0,0,9.77,4.638,12.086,12.086,0,0,0,9.773-4.638,1.512,1.512,0,0,1,1.954-.44L46.6,37.481a4.043,4.043,0,0,1,2.186,3.525V65.255A1.507,1.507,0,0,1,47.276,66.766ZM9.675,63.75H45.769V41.009a1.077,1.077,0,0,0-.633-.886l-6.04-3.35a15.175,15.175,0,0,1-11.374,4.84,15.162,15.162,0,0,1-11.413-4.885l-5.925,2.922a1.114,1.114,0,0,0-.709.923Z" transform="translate(-6.66 -2.25)" fill="#212934"/>
            <path id="Path_67" data-name="Path 67" d="M22.015,51.5A12.486,12.486,0,0,1,9.492,39.084V35.444a12.523,12.523,0,0,1,25.045,0v3.639A12.484,12.484,0,0,1,22.015,51.5Zm0-25.464a9.468,9.468,0,0,0-9.507,9.4v3.639a9.508,9.508,0,0,0,19.015,0V35.444A9.468,9.468,0,0,0,22.015,26.039Z" transform="translate(-0.953 -23.024)" fill="#212934"/>
          </g>
          <g id="Group_54" data-name="Group 54" transform="translate(110.692 13.4)">
            <path id="Path_68" data-name="Path 68" d="M83.986,66.766H44.878a1.508,1.508,0,0,1-1.508-1.508V40.572a4.1,4.1,0,0,1,2.388-3.63l7.014-3.456a1.51,1.51,0,0,1,1.891.473,12.606,12.606,0,0,0,19.536,0,1.519,1.519,0,0,1,1.954-.44L83.3,37.482a4.043,4.043,0,0,1,2.186,3.525V65.256A1.5,1.5,0,0,1,83.986,66.766Zm-37.6-3.015H82.479V41.01a1.079,1.079,0,0,0-.633-.89l-6.04-3.347a15.78,15.78,0,0,1-22.787-.045L47.091,39.65a1.112,1.112,0,0,0-.7.926V63.751Z" transform="translate(-43.37 -2.251)" fill="#212934"/>
            <path id="Path_69" data-name="Path 69" d="M58.724,51.5A12.486,12.486,0,0,1,46.2,39.084V35.444a12.523,12.523,0,0,1,25.045,0v3.639A12.48,12.48,0,0,1,58.724,51.5Zm0-25.464a9.468,9.468,0,0,0-9.507,9.4v3.639a9.508,9.508,0,0,0,19.015,0V35.444A9.466,9.466,0,0,0,58.724,26.039Z" transform="translate(-37.665 -23.024)" fill="#212934"/>
          </g>
        </g>
      </g>
    </g>
    <g id="Ellipse_1" data-name="Ellipse 1" transform="translate(300 2078)" fill="none" stroke="#212934" stroke-width="6">
      <circle cx="91.5" cy="91.5" r="91.5" stroke="none"/>
      <circle cx="91.5" cy="91.5" r="88.5" fill="none"/>
    </g>
  </g>
</svg>
