<svg xmlns="http://www.w3.org/2000/svg" width="180.919" height="180.919" viewBox="0 0 180.919 180.919">
  <g id="clock" transform="translate(0)">
    <path id="Path_70" data-name="Path 70" d="M90.459,0a90.459,90.459,0,1,0,90.459,90.459A90.562,90.562,0,0,0,90.459,0Zm0,174.888a84.429,84.429,0,1,1,84.429-84.429A84.525,84.525,0,0,1,90.459,174.888Z" fill="#212934"/>
    <path id="Path_71" data-name="Path 71" d="M57.2,48.476V17.894a3.015,3.015,0,1,0-6.031,0V48.476a12.045,12.045,0,0,0-8.618,8.618H21.015a3.015,3.015,0,0,0,0,6.031H42.551A12.036,12.036,0,1,0,57.2,48.476ZM54.184,66.139a6.031,6.031,0,1,1,6.031-6.031A6.037,6.037,0,0,1,54.184,66.139Z" transform="translate(36.276 29.986)" fill="#212934"/>
    <path id="Path_72" data-name="Path 72" d="M32.015,15.925a3.014,3.014,0,0,0,3.015-3.015V9.894a3.015,3.015,0,0,0-6.031,0V12.91A3.014,3.014,0,0,0,32.015,15.925Z" transform="translate(58.444 13.863)" fill="#212934"/>
    <path id="Path_73" data-name="Path 73" d="M32.015,49.879A3.014,3.014,0,0,0,29,52.894V55.91a3.015,3.015,0,0,0,6.031,0V52.894A3.014,3.014,0,0,0,32.015,49.879Z" transform="translate(58.444 100.522)" fill="#212934"/>
    <path id="Path_74" data-name="Path 74" d="M56.031,28.879H53.015a3.015,3.015,0,1,0,0,6.031h3.015a3.015,3.015,0,1,0,0-6.031Z" transform="translate(100.766 58.2)" fill="#212934"/>
    <path id="Path_75" data-name="Path 75" d="M13.031,28.879H10.015a3.015,3.015,0,1,0,0,6.031h3.015a3.015,3.015,0,0,0,0-6.031Z" transform="translate(14.107 58.2)" fill="#212934"/>
    <path id="Path_76" data-name="Path 76" d="M46.865,14.205l-2.132,2.132A3.015,3.015,0,1,0,49,20.6l2.132-2.132a3.015,3.015,0,0,0-4.264-4.264Z" transform="translate(88.369 26.848)" fill="#212934"/>
    <path id="Path_77" data-name="Path 77" d="M16.46,44.611l-2.132,2.132a3.015,3.015,0,1,0,4.264,4.264l2.132-2.132a3.015,3.015,0,0,0-4.264-4.264Z" transform="translate(27.093 88.126)" fill="#212934"/>
    <path id="Path_78" data-name="Path 78" d="M49,44.612a3.015,3.015,0,1,0-4.264,4.264l2.132,2.132a3.015,3.015,0,1,0,4.264-4.264Z" transform="translate(88.369 88.125)" fill="#212934"/>
    <path id="Path_79" data-name="Path 79" d="M18.592,14.206a3.015,3.015,0,1,0-4.264,4.264L16.46,20.6a3.015,3.015,0,0,0,4.264-4.264Z" transform="translate(27.093 26.847)" fill="#212934"/>
  </g>
</svg>
