<svg xmlns="http://www.w3.org/2000/svg" width="66.308" height="66.313" viewBox="0 0 66.308 66.313">
  <path id="facebook-square-brands" d="M59.208,32H7.105A7.1,7.1,0,0,0,0,39.1V91.2a7.105,7.105,0,0,0,7.105,7.1H27.421V75.768H18.1V65.157h9.325V57.069c0-9.2,5.477-14.281,13.865-14.281a56.5,56.5,0,0,1,8.21.712v9.029H44.875c-4.561,0-5.983,2.83-5.983,5.733v6.89H49.073L47.445,75.768H38.892V98.313H59.208a7.105,7.105,0,0,0,7.1-7.1V39.1a7.1,7.1,0,0,0-7.1-7.1Z" transform="translate(0 -32)" fill="#fff"/>
</svg>
