<svg xmlns="http://www.w3.org/2000/svg" width="65" height="61.999" viewBox="0 0 65 61.999">
  <g id="Group_74" data-name="Group 74" transform="translate(-142 -6698)">
    <path id="Exclusion_1" data-name="Exclusion 1" d="M-2093-23h-41a11.921,11.921,0,0,1-8.485-3.514A11.921,11.921,0,0,1-2146-35V-73a11.921,11.921,0,0,1,3.515-8.485A11.921,11.921,0,0,1-2134-85h41a11.921,11.921,0,0,1,8.485,3.514A11.921,11.921,0,0,1-2081-73v38a11.921,11.921,0,0,1-3.515,8.485A11.921,11.921,0,0,1-2093-23Zm-29.642-45.013-.491,28.09,25.722-13.6-25.231-14.489Z" transform="translate(2288 6783)" fill="#fff"/>
  </g>
</svg>
