<svg xmlns="http://www.w3.org/2000/svg" width="66.351" height="66.335" viewBox="0 0 66.351 66.335">
  <path id="instagram-brands" d="M33.108,47.985a16.981,16.981,0,1,0,12.034,4.974,17.008,17.008,0,0,0-12.034-4.974Zm0,28.065A11.057,11.057,0,1,1,44.165,64.993,11.057,11.057,0,0,1,33.108,76.05Zm21.67-28.76a3.958,3.958,0,1,1-1.16-2.808,3.967,3.967,0,0,1,1.16,2.808Zm11.264,4.026C65.79,46,64.577,41.3,60.684,37.416s-8.585-5.092-13.9-5.358c-5.477-.311-21.892-.311-27.369,0-5.3.252-10.006,1.465-13.9,5.344S.425,45.987.158,51.3c-.311,5.477-.311,21.892,0,27.369.252,5.314,1.465,10.021,5.358,13.9s8.585,5.092,13.9,5.358c5.477.311,21.892.311,27.369,0,5.314-.252,10.021-1.465,13.9-5.358s5.092-8.585,5.358-13.9C66.353,73.193,66.353,56.792,66.042,51.316Zm-7.075,33.23a11.194,11.194,0,0,1-6.306,6.306c-4.367,1.732-14.728,1.332-19.554,1.332s-15.2.385-19.554-1.332a11.194,11.194,0,0,1-6.306-6.306C5.516,80.18,5.916,69.818,5.916,64.993s-.385-15.2,1.332-19.554a11.194,11.194,0,0,1,6.306-6.306C17.921,37.4,28.282,37.8,33.108,37.8s15.2-.385,19.554,1.332a11.194,11.194,0,0,1,6.306,6.306C60.7,49.806,60.3,60.167,60.3,64.993S60.7,80.194,58.967,84.546Z" transform="translate(0.075 -31.825)" fill="#fff"/>
</svg>
