<svg xmlns="http://www.w3.org/2000/svg" width="66.314" height="66.313" viewBox="0 0 66.314 66.313">
  <path id="linkedin-brands" d="M61.577,32H4.722A4.757,4.757,0,0,0,0,36.781V93.532a4.757,4.757,0,0,0,4.722,4.781H61.577a4.77,4.77,0,0,0,4.737-4.781V36.781A4.77,4.77,0,0,0,61.577,32ZM20.042,88.84H10.213V57.193h9.843V88.84ZM15.128,52.871a5.7,5.7,0,1,1,5.7-5.7,5.7,5.7,0,0,1-5.7,5.7ZM56.884,88.84H47.056V73.446c0-3.671-.074-8.393-5.107-8.393-5.122,0-5.906,4-5.906,8.126V88.84H26.214V57.193h9.429v4.322h.133a10.352,10.352,0,0,1,9.311-5.107c9.947,0,11.8,6.557,11.8,15.083Z" transform="translate(0 -32)" fill="#fff"/>
</svg>
