<svg xmlns="http://www.w3.org/2000/svg" width="66.313" height="66.313" viewBox="0 0 66.313 66.313">
  <path id="medium-brands" d="M0,32V98.313H66.313V32ZM55.093,47.7,51.54,51.1a1.043,1.043,0,0,0-.4.992v25.06a1.019,1.019,0,0,0,.4.992l3.478,3.4V82.3H37.553v-.725l3.6-3.493c.355-.355.355-.459.355-.992V56.838L31.5,82.238H30.152L18.5,56.838V73.86a2.34,2.34,0,0,0,.651,1.954l4.677,5.669v.755H10.539v-.755l4.677-5.669a2.266,2.266,0,0,0,.607-1.954V54.173a1.69,1.69,0,0,0-.562-1.451L11.1,47.7v-.75H24.024L34,68.857l8.778-21.892H55.093Z" transform="translate(0 -32)" fill="#fff"/>
</svg>
