<svg xmlns="http://www.w3.org/2000/svg" width="66.305" height="66.3" viewBox="0 0 66.305 66.3">
  <path id="twitter-square-brands" d="M59.208,32H7.105A7.107,7.107,0,0,0,0,39.1V91.2a7.107,7.107,0,0,0,7.105,7.1H59.2a7.107,7.107,0,0,0,7.1-7.1V39.1a7.107,7.107,0,0,0-7.1-7.1ZM51.97,55.506c.03.414.03.844.03,1.258,0,12.836-9.77,27.62-27.621,27.62A27.493,27.493,0,0,1,9.473,80.033a20.452,20.452,0,0,0,2.339.118,19.464,19.464,0,0,0,12.049-4.145,9.721,9.721,0,0,1-9.074-6.735,10.463,10.463,0,0,0,4.381-.178A9.709,9.709,0,0,1,11.4,59.561v-.118a9.7,9.7,0,0,0,4.381,1.229,9.688,9.688,0,0,1-4.322-8.082,9.587,9.587,0,0,1,1.317-4.9A27.565,27.565,0,0,0,32.787,57.844,9.729,9.729,0,0,1,49.35,48.978a19.023,19.023,0,0,0,6.158-2.339,9.683,9.683,0,0,1-4.263,5.344,19.319,19.319,0,0,0,5.6-1.51,20.434,20.434,0,0,1-4.875,5.033Z" transform="translate(0 -32)" fill="#fff"/>
</svg>
