<svg xmlns="http://www.w3.org/2000/svg" width="399" height="98.82" viewBox="0 0 399 98.82">
  <g id="Group_18" data-name="Group 18" transform="translate(-140 -76)">
    <g id="global-shapers-logo" transform="translate(139.89 77.453)">
      <g id="Group_16" data-name="Group 16" transform="translate(0.11 1.547)">
        <path id="Path_10" data-name="Path 10" d="M7.188,50.466c2.128,0,4.257.008,6.386-.009.41,0,.586.083.628.531.064.646.274,1.28.326,1.926.038.573.288.613.77.553,2.192-.262,4.392-.473,6.585-.746.57-.07.673.127.661.628-.019.7-.216,1.37-.3,2.058-.062.494.146.6.568.5.182-.043.36-.1.545-.149.775-.21.984-.071,1.134.7a.646.646,0,0,1-.443.83q-5.466,2.358-10.837,4.932c-2.931,1.412-5.844,2.867-8.758,4.324-.359.178-.5.153-.664-.242A48.406,48.406,0,0,1,.24,51.147c-.035-.51.023-.715.629-.7,2.106.045,4.213.018,6.319.018" fill="#184897"/>
        <path id="Path_11" data-name="Path 11" d="M42.344.395c.369-.073.64.06.7.746.181,2.137.439,4.269.708,6.4.061.5-.143.611-.544.684-1.031.183-2.09.217-3.11.5-.6.164-.923.45-.763,1.11.133.545-.12.792-.645.919a24.706,24.706,0,0,0-2.418.7c-.44.151-.7.106-.856-.36-.324-.931-.685-1.848-1-2.781-.137-.4-.334-.554-.732-.338A1.214,1.214,0,0,1,33.56,8c-1.316.428-1.344.482-.83,1.773.8,2.03,1.589,4.069,2.427,6.084a.7.7,0,0,1-.389,1.052,4.183,4.183,0,0,1-.464.2.7.7,0,0,0-.477,1.07.872.872,0,0,1-.512,1.266c-.828.4-1.624.882-2.422,1.349-.257.15-.4.17-.581-.119Q26.3,14.393,22.27,8.141c-.256-.4,0-.517.225-.689a25.439,25.439,0,0,1,5.063-2.8A54.2,54.2,0,0,1,40.568.577C41.087.49,41.616.468,42.344.395" fill="#184897"/>
        <path id="Path_12" data-name="Path 12" d="M48.333,89.264c0-2.771.009-4.836-.009-6.9-.006-.485.169-.712.658-.661.633.064.786-.253.752-.835-.081-1.334-.119-1.193,1.091-1.367.436-.061.887-.057,1.314-.157.628-.15.9.12.987.693.024.167.064.331.093.5.136.759.217.844.945.629.473-.142.645,0,.722.444a7.829,7.829,0,0,1,.213.854c.03.739.507.875,1.1.881s1.177.025,1.767.013a.791.791,0,0,1,.862.654c.245.8.313.817,1.127.58.664-.2,1.331-.392,1.993-.6.27-.084.427-.086.561.252Q64,88.027,65.548,91.785c.171.41-.04.523-.308.673a18.47,18.47,0,0,1-4.489,1.623,47.424,47.424,0,0,1-10.437,1.7c-2,.063-1.646.248-1.762-1.551-.119-1.889-.169-3.783-.219-4.968" fill="#184897"/>
        <path id="Path_13" data-name="Path 13" d="M57.05.969a46.749,46.749,0,0,1,7.2,1.961,48.515,48.515,0,0,1,10.06,5.059c.334.215.39.368.148.71q-1.915,2.78-3.779,5.6a.48.48,0,0,1-.715.192c-.915-.391-1.694-1.016-2.569-1.477-.812-.426-.812-.43-1.24.372-.641,1.207-1.288,2.411-1.915,3.624-.144.287-.265.34-.567.192a38.936,38.936,0,0,0-6.083-2.429c-.243-.069-.355-.2-.276-.455.012-.04.018-.083.03-.122.49-1.77.471-1.433-1.237-1.91-.1-.027-.206-.032-.312-.054-1.05-.213-1.056-.215-.887-1.311.492-3.2,1.181-6.367,1.8-9.545.03-.17-.034-.533.342-.406" fill="#184897"/>
        <path id="Path_14" data-name="Path 14" d="M77.14,85.832l-.308.24a38.381,38.381,0,0,1-8.859,5.291c-.4.172-.558.084-.739-.314q-4.151-9.3-8.35-18.568a.532.532,0,0,1,.21-.778.64.64,0,0,0,.214-1.041c-.255-.353-.15-.647.258-.866a19.848,19.848,0,0,0,1.742-1.023c.336-.22.516-.164.753.145.545.7.566.7,1.314.193.465-.311.77-.281,1.144.211q6.107,8.019,12.254,16c.115.149.221.306.366.506" fill="#184897"/>
        <path id="Path_15" data-name="Path 15" d="M5.6,48.82c-1.7,0-3.412,0-5.116,0-.3,0-.5.018-.478-.415A54.9,54.9,0,0,1,2.524,33.019c.194-.566.377-.668.96-.46,3.1,1.106,6.226,2.17,9.352,3.219.436.149.55.326.413.762-.292.92-.537,1.857-.821,2.782-.179.58-.079.982.6,1.08.571.085.77.322.651.964-.272,1.488-.459,2.994-.631,4.5-.059.5-.385.5-.709.526-.9.069-.929.093-.9.995,0,.021,0,.041,0,.06.035,1.083.035,1.125-1.046,1.152-1.6.042-3.2.012-4.8.012,0,.07,0,.141,0,.213" fill="#184897"/>
        <path id="Path_16" data-name="Path 16" d="M46.863,84.273c-.105,3.579-.105,7.157-.077,10.737.006.506-.169.647-.616.679a20.326,20.326,0,0,1-3.9-.2,35.279,35.279,0,0,1-6.062-1.169c-.588-.178-.846-.427-.668-1.109.682-2.642,1.387-5.279,2.254-7.867.164-.5.387-.571.854-.45,1.48.395,1.506.386,1.844-1.105.393-1.74.736-3.494,1.116-5.241.161-.729.315-.854,1.04-.616.647.213.857,0,.936-.607.169-1.332.4-2.661.548-4,.065-.574.338-.753.857-.7h.061c1.978.138,1.978.138,1.978,2.123v9.532c-.055,0-.107,0-.162,0" fill="#184897"/>
        <path id="Path_17" data-name="Path 17" d="M26.536,34.543c-.143.286-.266.555-.407.813a13.041,13.041,0,0,0-1.171,2.578c-.186.625-.4.7-.993.475-5.85-2.218-11.716-4.4-17.577-6.6-.882-.331-1.767-.669-2.659-.982-.337-.118-.4-.253-.248-.593a56.606,56.606,0,0,1,3.705-7.3c.238-.381.383-.4.753-.169q9.077,5.709,18.175,11.392c.157.1.417.135.421.386" fill="#184897"/>
        <path id="Path_18" data-name="Path 18" d="M19.641,69.592a2.648,2.648,0,0,0-.959,3.118,8.262,8.262,0,0,1,.01,5.327c-.107.272.068.333.2.44.48.379.953.765,1.447,1.125.313.223.39.377.093.713q-1.61,1.822-3.148,3.706c-.269.329-.415.316-.726.054A46.24,46.24,0,0,1,6.58,71.943c-.588-1.017-1.1-2.079-1.681-3.1-.193-.342-.127-.483.2-.67,1.362-.755,2.812-1.322,4.2-2.019.332-.166.524,0,.584.241.28,1.09,1,1.164,1.973,1.069a5.249,5.249,0,0,1,3.1.914,20.857,20.857,0,0,1,1.859,1.187,1.323,1.323,0,0,0,1.3.2,2.666,2.666,0,0,1,1.527-.167" fill="#184897"/>
        <path id="Path_19" data-name="Path 19" d="M30.729,77.127c-.083.142-.165.291-.248.434-1.243,2.1-2.464,4.213-3.74,6.291-.3.5-.177.732.241,1,.9.589,1.083.545,1.548-.417.053-.118.1-.235.159-.344.414-.776.572-.827,1.335-.423a47.446,47.446,0,0,0,5.45,2.3c.4.153.487.29.346.718-.712,2.153-1.307,4.34-2.1,6.468-.1.281-.18.453-.559.311A62.383,62.383,0,0,1,20.54,87.209a12.608,12.608,0,0,1-1.865-1.5.429.429,0,0,1-.043-.688q4.035-5.1,8.046-10.226c.239-.3.382-.323.7-.1.987.716,2.01,1.388,3.012,2.086.128.09.308.142.342.345" fill="#184897"/>
        <path id="Path_20" data-name="Path 20" d="M20.534,8.735c.165.021.218.147.288.249q2.945,4.218,5.891,8.437c.181.256.113.4-.06.6-.912,1.017-1.83,2.033-2.72,3.072-.236.276-.4.2-.627.039a5.545,5.545,0,0,1-.956-1,.6.6,0,0,0-.952-.093A43.425,43.425,0,0,0,17,23.716a.658.658,0,0,1-1.02.057c-.33-.26-.671-.509-1.008-.762a.524.524,0,0,0-.769.035c-.417.367-.786,1.01-1.3.982-.471-.026-.919-.539-1.373-.843-.908-.61-1.806-1.234-2.724-1.829-.319-.211-.409-.356-.154-.717A47.568,47.568,0,0,1,20.182,8.978c.12-.086.244-.168.352-.243" fill="#184897"/>
        <path id="Path_21" data-name="Path 21" d="M48.471,0c2.064.026,4.108.328,6.156.555.372.042.43.213.378.538q-.848,5.651-1.678,11.3c-.058.39-.223.518-.6.543-.649.043-1.3.135-1.944.216a.764.764,0,0,0-.707.666,36.051,36.051,0,0,0-.729,3.648.881.881,0,0,1-.615.774,23.664,23.664,0,0,1-2.412.727c-.3.092-.39,0-.411-.31-.153-2.521-.324-5.039-.492-7.561C45.193,7.7,44.978,4.3,44.744.9c-.033-.423.011-.626.514-.684A24.626,24.626,0,0,1,48.471,0" fill="#184897"/>
        <path id="Path_22" data-name="Path 22" d="M80.458,27.8c-.216-.019-.287-.223-.388-.364-.341-.48-.675-.877-1.3-.354a.392.392,0,0,1-.6-.127c-.6-.814-1.2-1.628-1.817-2.43a.379.379,0,0,1,.093-.595c.541-.428.45-.863-.01-1.246-.53-.442-.442-.815.015-1.229.711-.651,1.4-1.331,2.133-1.966.363-.312.332-.525.021-.859a41.739,41.739,0,0,0-5.213-4.669c-.356-.271-.438-.428-.139-.818.885-1.149,1.733-2.331,2.566-3.52.229-.324.374-.333.689-.1A47.322,47.322,0,0,1,88.324,22.289c.14.221.367.4-.033.644-2.542,1.566-5.071,3.153-7.6,4.734-.072.045-.148.085-.232.135" fill="#184897"/>
        <path id="Path_23" data-name="Path 23" d="M77.179,72.514a3.262,3.262,0,0,1,.925.619c1.224,1.065,1.23,1.074,2.4.054a.558.558,0,0,1,.816-.075c1.546,1.057,2.982,2.261,4.485,3.374.319.236.174.41.035.622a27.418,27.418,0,0,1-2.77,3.355,33.492,33.492,0,0,1-4.135,3.887c-.366.274-.586.29-.909-.11-1.774-2.19-3.582-4.354-5.394-6.512-.265-.317-.306-.483.042-.789A51.882,51.882,0,0,0,76.8,72.851c.117-.129.213-.31.381-.337" fill="#184897"/>
      </g>
      <g id="Group_17" data-name="Group 17" transform="translate(47.853 36.269)">
        <path id="Path_24" data-name="Path 24" d="M8.746,8.084V.377H9.764V7.168h3.8v.916Z" fill="#4e4f50"/>
        <path id="Path_25" data-name="Path 25" d="M14.219,4.327a4.2,4.2,0,0,1,1.031-3A3.505,3.505,0,0,1,17.91.24a3.69,3.69,0,0,1,1.923.51,3.31,3.31,0,0,1,1.306,1.422,4.588,4.588,0,0,1,.451,2.066,4.56,4.56,0,0,1-.472,2.1,3.24,3.24,0,0,1-1.34,1.4,3.839,3.839,0,0,1-1.87.476,3.652,3.652,0,0,1-1.945-.526,3.339,3.339,0,0,1-1.3-1.433,4.307,4.307,0,0,1-.446-1.924Zm1.054.02a3.093,3.093,0,0,0,.749,2.19A2.618,2.618,0,0,0,19.8,6.528a3.269,3.269,0,0,0,.744-2.293,3.928,3.928,0,0,0-.32-1.641,2.429,2.429,0,0,0-.93-1.086,2.526,2.526,0,0,0-1.375-.385,2.615,2.615,0,0,0-1.864.744A3.31,3.31,0,0,0,15.273,4.346Z" fill="#4e4f50"/>
        <path id="Path_26" data-name="Path 26" d="M22.609,8.084V.377H25.5a3.613,3.613,0,0,1,1.413.233,1.852,1.852,0,0,1,.836.719,1.921,1.921,0,0,1,.3,1.014,1.705,1.705,0,0,1-.273.928,1.916,1.916,0,0,1-.813.7,2.036,2.036,0,0,1,1.085.7,1.882,1.882,0,0,1,.376,1.169,2.244,2.244,0,0,1-.229,1.009,1.927,1.927,0,0,1-.564.72,2.359,2.359,0,0,1-.844.382,5.022,5.022,0,0,1-1.24.131H22.609ZM23.631,3.6h1.657a3.675,3.675,0,0,0,.97-.088,1.068,1.068,0,0,0,.581-.382,1.086,1.086,0,0,0,.2-.667,1.229,1.229,0,0,0-.184-.671.924.924,0,0,0-.525-.4,4.4,4.4,0,0,0-1.166-.107H23.631Zm0,3.564h1.917a4.358,4.358,0,0,0,.693-.037,1.644,1.644,0,0,0,.591-.21,1.105,1.105,0,0,0,.388-.427,1.364,1.364,0,0,0,.152-.651,1.237,1.237,0,0,0-.228-.748,1.2,1.2,0,0,0-.619-.446A3.754,3.754,0,0,0,25.4,4.521H23.63V7.168Z" fill="#4e4f50"/>
        <path id="Path_27" data-name="Path 27" d="M28.747,8.084,31.7.377h1.106l3.15,7.707H34.8l-.892-2.336H30.67l-.842,2.336Zm2.213-3.165h2.628l-.808-2.138c-.249-.647-.43-1.183-.552-1.606a10.235,10.235,0,0,1-.415,1.486Z" fill="#4e4f50"/>
        <path id="Path_28" data-name="Path 28" d="M36.474,8.084V.377h1.02V7.168h3.792v.916Z" fill="#4e4f50"/>
        <path id="Path_29" data-name="Path 29" d="M.325,16.1l.966-.083a2.136,2.136,0,0,0,.315.948,1.727,1.727,0,0,0,.771.6,2.91,2.91,0,0,0,1.178.228,2.769,2.769,0,0,0,1.021-.173,1.447,1.447,0,0,0,.663-.474,1.121,1.121,0,0,0,.215-.66.99.99,0,0,0-.21-.629,1.513,1.513,0,0,0-.684-.452A13.044,13.044,0,0,0,3.2,15.026a6.976,6.976,0,0,1-1.483-.482,2.1,2.1,0,0,1-.824-.72,1.769,1.769,0,0,1-.27-.961,1.972,1.972,0,0,1,.33-1.093A2.045,2.045,0,0,1,1.913,11a3.641,3.641,0,0,1,1.411-.263,3.832,3.832,0,0,1,1.506.275,2.177,2.177,0,0,1,1,.813,2.316,2.316,0,0,1,.378,1.214l-.977.074A1.549,1.549,0,0,0,4.7,12.02a2.06,2.06,0,0,0-1.333-.37,2.137,2.137,0,0,0-1.341.339,1.012,1.012,0,0,0-.422.815.876.876,0,0,0,.3.682,4.024,4.024,0,0,0,1.529.548,9.85,9.85,0,0,1,1.694.49,2.285,2.285,0,0,1,.992.785,1.875,1.875,0,0,1,.32,1.091,2.085,2.085,0,0,1-.349,1.157,2.309,2.309,0,0,1-1.011.846,3.5,3.5,0,0,1-1.481.3,4.463,4.463,0,0,1-1.747-.3,2.458,2.458,0,0,1-1.106-.918A2.611,2.611,0,0,1,.325,16.1Z" fill="#4e4f50"/>
        <path id="Path_30" data-name="Path 30" d="M7.636,18.577v-7.7H8.657v3.153h3.994V10.873h1.021v7.7H12.651V14.94H8.657v3.636Z" fill="#4e4f50"/>
        <path id="Path_31" data-name="Path 31" d="M14.283,18.577l2.958-7.7h1.106l3.148,7.7H20.336l-.894-2.332H16.206l-.842,2.332Zm2.212-3.163h2.626l-.8-2.138q-.376-.971-.552-1.6a10.377,10.377,0,0,1-.416,1.484Z" fill="#4e4f50"/>
        <path id="Path_32" data-name="Path 32" d="M22.051,18.577v-7.7h2.905a6.959,6.959,0,0,1,1.172.074,2.315,2.315,0,0,1,.949.359,1.9,1.9,0,0,1,.619.744,2.5,2.5,0,0,1-.392,2.715,2.991,2.991,0,0,1-2.256.681H23.073v3.132H22.051Zm1.022-4.047h1.988a2.121,2.121,0,0,0,1.4-.365,1.307,1.307,0,0,0,.414-1.033,1.383,1.383,0,0,0-.245-.824,1.138,1.138,0,0,0-.641-.452,4.3,4.3,0,0,0-.953-.069H23.073V14.53Z" fill="#4e4f50"/>
        <path id="Path_33" data-name="Path 33" d="M29,18.577v-7.7h5.572v.913H30.025v2.345h4.256v.914H30.025v2.618h4.732v.913Z" fill="#4e4f50"/>
        <path id="Path_34" data-name="Path 34" d="M43.107,16.1l.967-.083a2.14,2.14,0,0,0,.316.948,1.712,1.712,0,0,0,.771.6,2.9,2.9,0,0,0,1.175.228,2.739,2.739,0,0,0,1.023-.173,1.411,1.411,0,0,0,.661-.474,1.109,1.109,0,0,0,.219-.66,1,1,0,0,0-.209-.629,1.5,1.5,0,0,0-.686-.452,12.968,12.968,0,0,0-1.364-.374,7.044,7.044,0,0,1-1.482-.482,2.094,2.094,0,0,1-.822-.72,1.744,1.744,0,0,1-.271-.961,1.974,1.974,0,0,1,.327-1.093A2.05,2.05,0,0,1,44.694,11a3.66,3.66,0,0,1,1.412-.263,3.825,3.825,0,0,1,1.5.275,2.166,2.166,0,0,1,1.006.813,2.312,2.312,0,0,1,.376,1.214l-.978.074a1.544,1.544,0,0,0-.529-1.092,2.064,2.064,0,0,0-1.336-.37,2.135,2.135,0,0,0-1.339.339,1.015,1.015,0,0,0-.421.815.877.877,0,0,0,.3.682,4.019,4.019,0,0,0,1.526.548,9.991,9.991,0,0,1,1.7.49,2.325,2.325,0,0,1,.991.785,1.89,1.89,0,0,1,.32,1.091,2.087,2.087,0,0,1-.351,1.157,2.316,2.316,0,0,1-1.009.846,3.514,3.514,0,0,1-1.481.3,4.441,4.441,0,0,1-1.748-.3,2.458,2.458,0,0,1-1.107-.918,2.628,2.628,0,0,1-.422-1.386Z" fill="#4e4f50"/>
        <path id="Path_35" data-name="Path 35" d="M6.158,26.368l1.023.257A3.438,3.438,0,0,1,6.024,28.54a3.171,3.171,0,0,1-2.036.659,3.663,3.663,0,0,1-2.025-.506A3.151,3.151,0,0,1,.774,27.222a5.217,5.217,0,0,1-.408-2.064,4.546,4.546,0,0,1,.46-2.1A3.152,3.152,0,0,1,2.133,21.7,3.819,3.819,0,0,1,4,21.233a3.161,3.161,0,0,1,1.941.587,3.068,3.068,0,0,1,1.1,1.657l-1.009.237a2.415,2.415,0,0,0-.775-1.226,2.072,2.072,0,0,0-1.28-.385,2.474,2.474,0,0,0-1.482.426,2.266,2.266,0,0,0-.836,1.143,4.586,4.586,0,0,0-.242,1.481A4.692,4.692,0,0,0,1.7,26.869a2.121,2.121,0,0,0,.891,1.1,2.5,2.5,0,0,0,1.31.362,2.182,2.182,0,0,0,1.448-.494,2.514,2.514,0,0,0,.8-1.464Z" fill="#4e4f50"/>
        <path id="Path_36" data-name="Path 36" d="M7.884,25.318a4.191,4.191,0,0,1,1.03-3,3.5,3.5,0,0,1,2.658-1.081,3.7,3.7,0,0,1,1.925.508A3.338,3.338,0,0,1,14.8,23.16a4.637,4.637,0,0,1,.447,2.069,4.542,4.542,0,0,1-.472,2.1,3.219,3.219,0,0,1-1.34,1.4,3.823,3.823,0,0,1-1.873.474,3.64,3.64,0,0,1-1.943-.526,3.361,3.361,0,0,1-1.3-1.434,4.318,4.318,0,0,1-.44-1.921Zm1.049.018a3.077,3.077,0,0,0,.749,2.19,2.466,2.466,0,0,0,1.881.8,2.459,2.459,0,0,0,1.894-.807,3.27,3.27,0,0,0,.743-2.295,3.96,3.96,0,0,0-.315-1.641,2.45,2.45,0,0,0-.931-1.085,2.54,2.54,0,0,0-1.375-.385,2.6,2.6,0,0,0-1.862.743,3.3,3.3,0,0,0-.783,2.478Z" fill="#4e4f50"/>
        <path id="Path_37" data-name="Path 37" d="M16.272,29.074v-7.7h1.533l1.834,5.455q.251.764.369,1.141c.088-.281.225-.691.412-1.236l1.86-5.361H23.65v7.7h-.987V22.629l-2.252,6.445h-.918l-2.236-6.56v6.56h-.986Z" fill="#4e4f50"/>
        <path id="Path_38" data-name="Path 38" d="M24.992,29.074v-7.7h1.533l1.832,5.455q.254.764.37,1.141c.09-.281.227-.691.414-1.236L31,21.368h1.37v7.7h-.989V22.629l-2.25,6.445h-.918l-2.234-6.56v6.56h-.987Z" fill="#4e4f50"/>
        <path id="Path_39" data-name="Path 39" d="M38.807,21.368h1.02v4.45a5.251,5.251,0,0,1-.263,1.842,2.227,2.227,0,0,1-.948,1.109,3.323,3.323,0,0,1-1.8.43,3.692,3.692,0,0,1-1.768-.372,2.14,2.14,0,0,1-.981-1.078,5.164,5.164,0,0,1-.3-1.931v-4.45h1.019V25.81a4.339,4.339,0,0,0,.186,1.474,1.434,1.434,0,0,0,.641.734,2.221,2.221,0,0,0,1.109.257,2.128,2.128,0,0,0,1.6-.511,2.921,2.921,0,0,0,.477-1.954Z" fill="#4e4f50"/>
        <path id="Path_40" data-name="Path 40" d="M41.268,29.074v-7.7h1.045l4.054,6.051V21.369h.976v7.7H46.3l-4.052-6.051v6.051Z" fill="#4e4f50"/>
        <path id="Path_41" data-name="Path 41" d="M48.983,29.074v-7.7H50v7.7Z" fill="#4e4f50"/>
        <path id="Path_42" data-name="Path 42" d="M53.511,29.074v-6.79H50.97v-.914h6.108v.914H54.532v6.79Z" fill="#4e4f50"/>
        <path id="Path_43" data-name="Path 43" d="M60.046,29.074V25.81l-2.974-4.442h1.223L59.818,23.7c.282.433.548.87.792,1.31.24-.414.526-.874.851-1.38l1.5-2.266h1.188l-3.08,4.442v3.263Z" fill="#4e4f50"/>
        <path id="Path_44" data-name="Path 44" d="M5.887.694a2.663,2.663,0,0,1,1.39,2.049H6.237A1.818,1.818,0,0,0,5.465,1.55a2.663,2.663,0,0,0-1.471-.372,2.3,2.3,0,0,0-1.77.779A3.284,3.284,0,0,0,1.5,4.272,3.625,3.625,0,0,0,2.1,6.44a2.2,2.2,0,0,0,1.933.837A2.518,2.518,0,0,0,5.74,6.689a2.458,2.458,0,0,0,.689-1.9H4V3.951H7.4V7.946H6.729l-.254-.961a3.842,3.842,0,0,1-.928.782,3.542,3.542,0,0,1-1.726.378,3.389,3.389,0,0,1-2.329-.861A4.028,4.028,0,0,1,.428,4.328,4.18,4.18,0,0,1,1.467,1.344,3.336,3.336,0,0,1,4.019.288,4.041,4.041,0,0,1,5.887.694" fill="#4e4f50"/>
        <path id="Path_45" data-name="Path 45" d="M35.946,10.886h3.673a3.775,3.775,0,0,1,1.5.256,1.79,1.79,0,0,1,1.115,1.8,1.928,1.928,0,0,1-.3,1.121,2.166,2.166,0,0,1-.84.7,1.676,1.676,0,0,1,.716.475,1.66,1.66,0,0,1,.264.964l.041,1.023a2.7,2.7,0,0,0,.076.648.63.63,0,0,0,.35.465v.175H41.2a.786.786,0,0,1-.09-.256,4.919,4.919,0,0,1-.053-.6l-.07-1.272a1.065,1.065,0,0,0-.571-1.005,2.422,2.422,0,0,0-.954-.142H37.037v3.275H35.946Zm3.554,3.5a2.125,2.125,0,0,0,1.187-.293,1.172,1.172,0,0,0,.432-1.05,1.113,1.113,0,0,0-.613-1.111,2.032,2.032,0,0,0-.867-.155h-2.6v2.609Z" fill="#4e4f50"/>
      </g>
    </g>
    <text id="Helsinki" transform="translate(260 144)" fill="#044b91" font-size="70" font-family="Montserrat-Regular, Montserrat"><tspan x="0" y="0">Helsinki</tspan></text>
  </g>
</svg>
